<svg width="20" height="20" viewBox="0 0 20 20" fill="none" xmlns="http://www.w3.org/2000/svg">
<path d="M12 15.7895V17.8947L14 18.9474V20H6.00004L5.99604 18.9516L8.00004 17.8947V15.7895H0.992041C0.860727 15.7886 0.730858 15.7606 0.609879 15.7068C0.488899 15.653 0.379188 15.5747 0.287032 15.4762C0.194877 15.3777 0.122089 15.2611 0.0728414 15.1329C0.0235937 15.0048 -0.00114581 14.8677 4.07459e-05 14.7295V1.06C4.07459e-05 0.474737 0.455041 0 0.992041 0H19.008C19.556 0 20 0.472632 20 1.06V14.7295C20 15.3147 19.545 15.7895 19.008 15.7895H12ZM2.00004 2.10526V11.5789H18V2.10526H2.00004Z" fill="#DC869E"/>
</svg>
