<svg width="20" height="20" viewBox="0 0 20 20" fill="none" xmlns="http://www.w3.org/2000/svg">
<path d="M6 4.7619V8.57048H9V4.7619H11V8.57048H14V4.7619H16V8.57048L17 8.57143C17.7652 8.57139 18.5015 8.84983 19.0583 9.34979C19.615 9.84975 19.9501 10.5334 19.995 11.261L20 11.4286V12.381C20 13.3467 19.623 14.2286 19.001 14.9L19 19.0476C19 19.3002 18.8946 19.5424 18.7071 19.7211C18.5196 19.8997 18.2652 20 18 20H2C1.73478 20 1.48043 19.8997 1.29289 19.7211C1.10536 19.5424 1 19.3002 1 19.0476V14.8952C0.462668 14.3122 0.123739 13.5876 0.0280001 12.8171L0.00600005 12.5762L4.66045e-09 12.381V11.4286C-4.26217e-05 10.6998 0.292325 9.99856 0.817284 9.46832C1.34224 8.93809 2.06011 8.61895 2.824 8.57619L3 8.57143L4 8.57048V4.7619H6ZM7.002 14.8962L6.948 14.9562C6.2925 15.6378 5.39883 16.0688 4.434 16.1686L4.204 16.1857L4 16.1905C3.655 16.1905 3.32 16.1486 3 16.0705V18.0952H17V16.0705C16.3454 16.2308 15.6588 16.2307 15.0042 16.0704C14.3496 15.91 13.7482 15.5945 13.256 15.1533L13.106 15.0105L13 14.899L12.893 15.0114C12.2446 15.6598 11.3765 16.0693 10.442 16.1676L10.2 16.1867L10 16.1905C8.95346 16.1919 7.9485 15.8005 7.203 15.101L7.053 14.9514L7.002 14.8962ZM17 10.4762H3C2.75507 10.4762 2.51866 10.5619 2.33563 10.7169C2.15259 10.8719 2.03566 11.0855 2.007 11.3171L2 11.4286V12.3533L2.003 12.4933C2.0331 12.9783 2.25661 13.434 2.62783 13.7671C2.99905 14.1003 3.48991 14.2858 4 14.2857C4.47895 14.2865 4.94229 14.1235 5.30568 13.8264C5.66907 13.5292 5.90836 13.1177 5.98 12.6667L5.995 12.521L6 12.3533C6.036 11.1648 7.827 11.1219 7.989 12.2257L7.999 12.3533L8.003 12.4933C8.03097 12.9771 8.25145 13.4325 8.61956 13.7669C8.98767 14.1013 9.47575 14.2895 9.98444 14.2933C10.4931 14.2971 10.9842 14.1161 11.3577 13.7872C11.7313 13.4582 11.9591 13.0061 11.995 12.5229L12.007 12.2543C12.131 11.1533 13.869 11.1533 13.993 12.2543L14.005 12.5229C14.0408 13.0035 14.2665 13.4534 14.6367 13.7819C15.0069 14.1104 15.494 14.293 16 14.293C16.506 14.293 16.9931 14.1104 17.3633 13.7819C17.7335 13.4534 17.9592 13.0035 17.995 12.5229L18 12.381V11.4286C18 11.1953 17.91 10.9702 17.7473 10.7958C17.5845 10.6215 17.3603 10.5101 17.117 10.4829L17 10.4762ZM5 0C6.32 0.829524 6.663 1.98857 6.449 2.75048C6.3461 3.11647 6.09474 3.42855 5.75024 3.61805C5.40574 3.80755 4.9963 3.85896 4.612 3.76095C4.2277 3.66295 3.90002 3.42357 3.70105 3.09547C3.50207 2.76737 3.4481 2.37743 3.551 2.01143C3.85 0.954286 5 1.42857 5 0ZM10 0C11.32 0.829524 11.663 1.98857 11.449 2.75048C11.3461 3.11647 11.0947 3.42855 10.7502 3.61805C10.4057 3.80755 9.9963 3.85896 9.612 3.76095C9.2277 3.66295 8.90002 3.42357 8.70105 3.09547C8.50207 2.76737 8.4481 2.37743 8.551 2.01143C8.85 0.954286 10 1.42857 10 0ZM15 0C16.32 0.829524 16.663 1.98857 16.449 2.75048C16.3461 3.11647 16.0947 3.42855 15.7502 3.61805C15.4057 3.80755 14.9963 3.85896 14.612 3.76095C14.2277 3.66295 13.9 3.42357 13.701 3.09547C13.5021 2.76737 13.4481 2.37743 13.551 2.01143C13.85 0.954286 15 1.42857 15 0Z" fill="#DC869E"/>
</svg>
