<svg width="20" height="20" viewBox="0 0 20 20" fill="none" xmlns="http://www.w3.org/2000/svg">
<path d="M18.1818 17.7778H20V20H0V17.7778H1.81818V1.11111C1.81818 0.816426 1.91396 0.533811 2.08445 0.325437C2.25494 0.117063 2.48617 0 2.72727 0H11.8182C12.0593 0 12.2905 0.117063 12.461 0.325437C12.6315 0.533811 12.7273 0.816426 12.7273 1.11111V17.7778H16.3636V8.88889H14.5455V6.66667H17.2727C17.5138 6.66667 17.7451 6.78373 17.9156 6.9921C18.086 7.20048 18.1818 7.48309 18.1818 7.77778V17.7778ZM3.63636 2.22222V17.7778H10.9091V2.22222H3.63636ZM5.45455 8.88889H9.09091V11.1111H5.45455V8.88889ZM5.45455 4.44444H9.09091V6.66667H5.45455V4.44444Z" fill="#DC869E"/>
</svg>
