<svg width="17" height="16" viewBox="0 0 17 16" fill="none" xmlns="http://www.w3.org/2000/svg">
<path d="M16.6667 0.5V12.1667C16.6665 12.9004 16.4242 13.6136 15.9774 14.1956C15.5306 14.7777 14.9043 15.196 14.1955 15.3858C13.4867 15.5756 12.7351 15.5262 12.0573 15.2453C11.3794 14.9644 10.8132 14.4677 10.4464 13.8323C10.0796 13.1968 9.9327 12.458 10.0285 11.7306C10.1244 11.0031 10.4576 10.3276 10.9764 9.80876C11.4953 9.28995 12.1708 8.95684 12.8983 8.86109C13.6258 8.76534 14.3645 8.91229 15 9.27917V2.16667H7.49998V12.1667C7.49982 12.9004 7.25756 13.6136 6.81076 14.1956C6.36397 14.7777 5.73762 15.196 5.02884 15.3858C4.32006 15.5756 3.56846 15.5262 2.89061 15.2453C2.21275 14.9644 1.64652 14.4677 1.27971 13.8323C0.91291 13.1968 0.766037 12.458 0.861871 11.7306C0.957706 11.0031 1.29089 10.3276 1.80976 9.80876C2.32863 9.28995 3.00418 8.95684 3.73166 8.86109C4.45913 8.76534 5.19787 8.91229 5.83332 9.27917V0.5H16.6667ZM4.16665 13.8333C4.60868 13.8333 5.0326 13.6577 5.34516 13.3452C5.65772 13.0326 5.83332 12.6087 5.83332 12.1667C5.83332 11.7246 5.65772 11.3007 5.34516 10.9882C5.0326 10.6756 4.60868 10.5 4.16665 10.5C3.72462 10.5 3.3007 10.6756 2.98814 10.9882C2.67558 11.3007 2.49998 11.7246 2.49998 12.1667C2.49998 12.6087 2.67558 13.0326 2.98814 13.3452C3.3007 13.6577 3.72462 13.8333 4.16665 13.8333ZM13.3333 13.8333C13.7753 13.8333 14.1993 13.6577 14.5118 13.3452C14.8244 13.0326 15 12.6087 15 12.1667C15 11.7246 14.8244 11.3007 14.5118 10.9882C14.1993 10.6756 13.7753 10.5 13.3333 10.5C12.8913 10.5 12.4674 10.6756 12.1548 10.9882C11.8422 11.3007 11.6667 11.7246 11.6667 12.1667C11.6667 12.6087 11.8422 13.0326 12.1548 13.3452C12.4674 13.6577 12.8913 13.8333 13.3333 13.8333Z" fill="#DC869E"/>
</svg>
