<svg width="20" height="20" viewBox="0 0 20 20" fill="none" xmlns="http://www.w3.org/2000/svg">
<path d="M10 0C15.523 0 20 4.477 20 10C20 15.523 15.523 20 10 20C4.477 20 0 15.523 0 10C0 4.477 4.477 0 10 0ZM11.67 14H8.33L6.95 15.897L7.504 17.603C8.30968 17.8669 9.15221 18.0009 10 18C10.871 18 11.71 17.86 12.496 17.603L13.049 15.897L11.669 14H11.67ZM3.294 8.872L2.002 9.809L2 10C2 11.73 2.549 13.331 3.482 14.64H5.392L6.715 12.82L5.687 9.65L3.294 8.872ZM16.706 8.872L14.313 9.65L13.285 12.82L14.607 14.64H16.517C17.4838 13.2862 18.0024 11.6636 18 10L17.997 9.81L16.706 8.872ZM10 7.536L7.656 9.238L8.552 12H11.447L12.343 9.238L10 7.536ZM12.291 2.333L11 3.273V5.79L13.694 7.747L15.933 7.02L16.487 5.317C15.4546 3.88787 13.9798 2.83905 12.291 2.333ZM7.708 2.333C6.01941 2.83951 4.54495 3.88868 3.513 5.318L4.067 7.02L6.306 7.747L9 5.79V3.273L7.708 2.333Z" fill="#DC869E"/>
</svg>
