<svg width="133" height="20" viewBox="0 0 133 20" fill="none" xmlns="http://www.w3.org/2000/svg">
<path d="M5.45 3.725L5.325 9.75H9.275L9.475 7.95C9.94167 7.95 10.4417 8.09167 10.975 8.375V13.125L10.1 13.2C9.85 12.4833 9.68333 11.8833 9.6 11.4H5.325C5.29167 12.85 5.25833 14.9917 5.225 17.825H10.95L11.55 15.475L13 15.575C13.2333 16.525 13.35 17.3667 13.35 18.1C13.35 18.8167 13.3333 19.2833 13.3 19.5H1.15L1.075 18.625C1.80833 18.3583 2.51667 18.1667 3.2 18.05C3.1 11.55 3.01667 6.71667 2.95 3.55C2.58333 3.51667 1.85 3.31667 0.75 2.95L0.875 2H12.925C12.9583 2.21667 12.975 2.55 12.975 3C12.975 3.91667 12.8583 4.90833 12.625 5.975C12.2583 6.05833 11.775 6.1 11.175 6.1L10.575 3.725H5.45ZM27.9432 8.475L23.0682 19.5H21.2932L16.7182 8.5L14.6182 8.3C14.6182 7.83333 14.7598 7.33333 15.0432 6.8H21.0932L21.1682 7.675C20.6348 7.90833 20.0432 8.09167 19.3932 8.225L21.6432 15.05L22.2182 17.25H22.5182L23.1432 15.025L25.4682 8.225L23.3682 7.675L23.4432 6.8H29.5682C29.8515 7.33333 29.9932 7.83333 29.9932 8.3C29.3098 8.38333 28.6265 8.44167 27.9432 8.475ZM36.8643 18.1C37.5976 18.1 38.7476 17.75 40.3143 17.05C40.6309 17.4833 40.7976 17.8667 40.8143 18.2C39.9643 18.7 39.1309 19.0917 38.3143 19.375C37.4976 19.6583 36.9143 19.8 36.5643 19.8C34.6309 19.8 33.1559 19.225 32.1393 18.075C31.1226 16.9083 30.6143 15.2833 30.6143 13.2C30.6143 11.1167 31.1059 9.48333 32.0893 8.3C33.0893 7.1 34.5809 6.5 36.5643 6.5C38.0976 6.5 39.2643 7.05 40.0643 8.15C40.8809 9.25 41.2893 10.725 41.2893 12.575C41.1559 12.8083 41.0476 12.9667 40.9643 13.05L32.9143 12.925C32.9309 14.6083 33.2226 15.8917 33.7893 16.775C34.3726 17.6583 35.3976 18.1 36.8643 18.1ZM39.0143 11.5C39.0143 10.4 38.8143 9.55 38.4143 8.95C38.0143 8.33333 37.3476 8.025 36.4143 8.025C35.4809 8.025 34.6476 8.2 33.9143 8.55C33.4143 9.55 33.0976 10.575 32.9643 11.625C34.2809 11.6083 36.2976 11.5667 39.0143 11.5ZM51.1072 6.5C52.7072 6.5 53.8656 6.9 54.5822 7.7C55.2989 8.48333 55.6572 9.68333 55.6572 11.3C55.6572 11.7667 55.5906 13.9333 55.4572 17.8L57.5572 18C57.5572 18.4667 57.4156 18.9667 57.1322 19.5H51.3822L51.3072 18.625C52.0739 18.3583 52.8239 18.1583 53.5572 18.025C53.4572 13.6583 53.3656 11.2333 53.2822 10.75C53.2156 10.25 53.0989 9.81667 52.9322 9.45C52.7656 9.08333 52.5156 8.825 52.1822 8.675C51.8489 8.525 51.4072 8.45 50.8572 8.45C49.7572 8.45 48.6906 8.71667 47.6572 9.25C47.5572 13.05 47.4906 15.9 47.4572 17.8L49.5572 18C49.5572 18.4667 49.4156 18.9667 49.1322 19.5H43.3822L43.3072 18.625C44.0739 18.3583 44.8239 18.1583 45.5572 18.025C45.4572 13.7917 45.3739 10.6583 45.3072 8.625C44.3906 8.575 43.6572 8.475 43.1072 8.325L43.2072 7.025C44.1072 6.775 45.4156 6.65 47.1322 6.65C47.3322 6.95 47.4822 7.38333 47.5822 7.95C48.2989 7.56667 49.0156 7.23333 49.7322 6.95C50.4656 6.65 50.9239 6.5 51.1072 6.5ZM60.5625 17.95L60.3625 8.525H58.4375L58.3625 7.65C58.5292 7.53333 59.0125 7.31667 59.8125 7L61.8625 3.8C62.1958 3.83333 62.4542 3.91667 62.6375 4.05L62.6125 6.8C63.8625 6.8 64.8875 6.88333 65.6875 7.05C65.6875 7.5 65.5458 7.99167 65.2625 8.525H62.5625C62.5292 10.525 62.4958 13.5583 62.4625 17.625C63.3958 17.675 64.3292 17.8417 65.2625 18.125L65.2375 19C65.0042 19.15 64.4042 19.325 63.4375 19.525C62.4875 19.725 61.7042 19.825 61.0875 19.825C61.0042 19.6917 60.8958 19.4083 60.7625 18.975C60.6292 18.525 60.5625 18.1833 60.5625 17.95ZM69.4789 17.9C70.0622 18.15 70.7706 18.275 71.6039 18.275C72.4539 18.275 73.1206 18.1167 73.6039 17.8C74.0872 17.4833 74.3289 17.05 74.3289 16.5C74.3289 15.95 74.1039 15.4917 73.6539 15.125C73.2039 14.7583 72.6539 14.4333 72.0039 14.15C71.3539 13.8667 70.7039 13.5667 70.0539 13.25C69.4039 12.9333 68.8539 12.5167 68.4039 12C67.9539 11.4833 67.7289 10.8833 67.7289 10.2C67.7289 9.05 68.1122 8.15 68.8789 7.5C69.6456 6.83333 70.7039 6.5 72.0539 6.5C73.4206 6.5 74.7039 6.80833 75.9039 7.425C75.9206 7.59167 75.9289 8.04167 75.9289 8.775C75.9289 9.49167 75.8539 10.1083 75.7039 10.625C75.3039 10.7583 74.8289 10.825 74.2789 10.825L73.4539 8.275C73.0872 8.09167 72.5872 8 71.9539 8C71.3372 8 70.8456 8.16667 70.4789 8.5C70.1122 8.81667 69.9289 9.225 69.9289 9.725C69.9289 10.2083 70.1539 10.6333 70.6039 11C71.0706 11.3667 71.6289 11.7 72.2789 12C72.9289 12.2833 73.5789 12.5917 74.2289 12.925C74.8789 13.2417 75.4289 13.6667 75.8789 14.2C76.3456 14.7167 76.5789 15.3167 76.5789 16C76.5789 17.2 76.1122 18.1417 75.1789 18.825C74.2622 19.4917 73.1289 19.825 71.7789 19.825C71.0456 19.825 70.2622 19.7083 69.4289 19.475C68.5956 19.225 67.8956 18.9083 67.3289 18.525C67.3289 17.4083 67.4289 16.4167 67.6289 15.55C68.0122 15.4833 68.5289 15.45 69.1789 15.45L69.4789 17.9ZM82.2076 0.924999C82.7243 0.924999 83.091 0.941666 83.3076 0.974999C83.3076 1.275 83.2576 1.66667 83.1576 2.15C83.0743 2.61667 83.016 2.89167 82.9826 2.975C82.9826 3.34167 82.966 4.1 82.9326 5.25C82.8993 6.4 82.8826 7.29167 82.8826 7.925C83.5993 7.54167 84.3076 7.20833 85.0076 6.925C85.7243 6.64167 86.1743 6.5 86.3576 6.5C87.9576 6.5 89.116 6.9 89.8326 7.7C90.5493 8.48333 90.9076 9.68333 90.9076 11.3C90.9076 11.7667 90.841 13.9333 90.7076 17.8L92.8076 18C92.8076 18.4667 92.666 18.9667 92.3826 19.5H86.6326L86.5576 18.625C87.3243 18.3583 88.0743 18.1583 88.8076 18.025C88.7076 13.6583 88.616 11.2333 88.5326 10.75C88.466 10.25 88.3493 9.81667 88.1826 9.45C88.016 9.08333 87.766 8.825 87.4326 8.675C87.0993 8.525 86.6576 8.45 86.1076 8.45C84.9743 8.45 83.891 8.71667 82.8576 9.25L82.7076 17.8L84.8076 18C84.8076 18.4667 84.666 18.9667 84.3826 19.5H78.6326L78.5576 18.625C79.3243 18.3583 80.0743 18.1583 80.8076 18.025L80.5076 2.9C79.591 2.85 78.8576 2.75 78.3076 2.6L78.4076 1.3C79.2576 1.05 80.5243 0.924999 82.2076 0.924999ZM104.187 11.325L104.062 17.775C104.779 17.825 105.496 17.9417 106.212 18.125L106.162 19C105.896 19.1333 105.412 19.2833 104.712 19.45C104.029 19.6 103.354 19.675 102.687 19.675C102.387 19.075 102.221 18.5 102.187 17.95C100.287 19.2 98.954 19.825 98.1873 19.825C97.004 19.825 96.054 19.5083 95.3373 18.875C94.6206 18.2417 94.2623 17.3583 94.2623 16.225C94.2623 13.6083 95.8623 12.2583 99.0623 12.175C100.929 12.125 101.871 12.1 101.887 12.1L101.862 11.25C101.829 10.1 101.612 9.275 101.212 8.775C100.812 8.25833 100.096 8 99.0623 8C98.629 8 98.1623 8.1 97.6623 8.3L97.0623 10.8C96.979 10.8167 96.8373 10.825 96.6373 10.825L95.6123 10.75C95.3456 10.0333 95.204 9.04167 95.1873 7.775C95.504 7.60833 96.229 7.35833 97.3623 7.025C98.4956 6.675 99.2206 6.5 99.5373 6.5C101.237 6.5 102.437 6.875 103.137 7.625C103.837 8.375 104.187 9.60833 104.187 11.325ZM98.7373 18.125C99.2206 18.125 100.337 17.5833 102.087 16.5L101.962 13.375C100.829 13.475 99.879 13.5667 99.1123 13.65C98.3456 13.7333 97.729 13.9583 97.2623 14.325C96.7956 14.675 96.5623 15.2333 96.5623 16C96.5623 17.4167 97.2873 18.125 98.7373 18.125ZM115.289 8.6C115.206 8.51667 115.022 8.475 114.739 8.475C114.456 8.475 114.031 8.575 113.464 8.775C112.914 8.975 112.414 9.20833 111.964 9.475C111.864 13.175 111.797 15.95 111.764 17.8L113.864 18C113.864 18.4667 113.722 18.9667 113.439 19.5H107.689L107.614 18.625C108.381 18.3583 109.131 18.1583 109.864 18.025C109.764 13.7917 109.681 10.6583 109.614 8.625C108.697 8.575 107.964 8.475 107.414 8.325L107.514 7.025C108.397 6.775 109.706 6.65 111.439 6.65C111.706 7.06667 111.872 7.6 111.939 8.25C113.856 7.08333 114.997 6.5 115.364 6.5C115.731 6.5 116.156 6.575 116.639 6.725C117.122 6.85833 117.481 7.00833 117.714 7.175C117.714 8.84167 117.556 10.2 117.239 11.25C117.006 11.3167 116.731 11.35 116.414 11.35C116.114 11.35 115.906 11.3417 115.789 11.325L115.289 8.6ZM122.219 0.775C122.736 0.775 123.103 0.791666 123.319 0.824999C123.319 1.34167 123.211 2.00833 122.994 2.825C122.894 7.225 122.844 10.55 122.844 12.8L126.869 8.5L124.869 8.3C124.869 7.83333 125.011 7.33333 125.294 6.8H131.644L131.719 7.9C131.336 8.05 130.636 8.24167 129.619 8.475L126.194 11.575L130.419 17.8L132.519 18C132.519 18.4667 132.378 18.9667 132.094 19.5H128.669L124.769 12.85L122.819 14.625C122.786 16.025 122.769 17.0833 122.769 17.8L124.869 18C124.869 18.4667 124.728 18.9667 124.444 19.5H118.694L118.619 18.625C119.386 18.3583 120.136 18.1583 120.869 18.025C120.769 11.2917 120.686 6.2 120.619 2.75C119.703 2.7 118.969 2.6 118.419 2.45L118.519 1.15C119.369 0.9 120.603 0.775 122.219 0.775Z" fill="#262627"/>
</svg>
